<?xml version="1.0" encoding="iso-8859-1" standalone="no"?> 
<?xml-stylesheet href="swarmITT.css" type="text/css"?> 
<svg xmlns="http://www.w3.org/2000/svg" xmlns:xlink="http://www.w3.org/1999/xlink" width="416.34412pt" height="538.16447pt" viewBox="-74.7112 -537.24028 416.34412 538.16447 "> 
<g transform="translate(0, 0.9242 ) scale(1,-1) translate(0,537.24028 )"> 
                             <g>
 <g stroke="rgb(0.0%,0.0%,0.0%)">
 <g fill="rgb(0.0%,0.0%,0.0%)">
 <g stroke-width="0.4pt">
 <g>
 <g>
 <g fill="rgb(100.0%,100.0%,100.0%)">
 <g>
 <g fill="rgb(100.0%,100.0%,100.0%)">
 <path d=" M  0.0 -535.02255 h  341.43292 v  535.02255 h  -341.43292 Z  " />
 </g>
 </g>
 <g>
 <g transform="matrix(1.0,0.0,0.0,1.0,170.71646,-267.51128)">
 <g fill="rgb(0.0%,0.0%,0.0%)">
 <text style="stroke:none" transform="scale(1,-1) translate(0.0,0)" text-anchor="middle"  font-size="12"> 
</text> 
</g>
 </g>
 </g>
 </g>
 </g>
 <g>
 <g stroke-dasharray="0.4pt,2.0pt" stroke-dashoffset="0.0pt">
 <path d=" M  28.45274 -42.67911 L  28.45274 -535.02255  " style="fill:none"/>
 </g>
 </g>
 <g>
 <g stroke-dasharray="0.4pt,2.0pt" stroke-dashoffset="0.0pt">
 <path d=" M  56.90549 -42.67911 L  56.90549 -535.02255  " style="fill:none"/>
 </g>
 </g>
 <g>
 <g stroke-dasharray="0.4pt,2.0pt" stroke-dashoffset="0.0pt">
 <path d=" M  85.35823 -42.67911 L  85.35823 -535.02255  " style="fill:none"/>
 </g>
 </g>
 <g>
 <g stroke-dasharray="0.4pt,2.0pt" stroke-dashoffset="0.0pt">
 <path d=" M  113.81097 -42.67911 L  113.81097 -535.02255  " style="fill:none"/>
 </g>
 </g>
 <g>
 <g stroke-dasharray="0.4pt,2.0pt" stroke-dashoffset="0.0pt">
 <path d=" M  142.26372 -42.67911 L  142.26372 -535.02255  " style="fill:none"/>
 </g>
 </g>
 <g>
 <g stroke-dasharray="0.4pt,2.0pt" stroke-dashoffset="0.0pt">
 <path d=" M  170.71646 -42.67911 L  170.71646 -535.02255  " style="fill:none"/>
 </g>
 </g>
 <g>
 <g stroke-dasharray="0.4pt,2.0pt" stroke-dashoffset="0.0pt">
 <path d=" M  199.1692 -42.67911 L  199.1692 -535.02255  " style="fill:none"/>
 </g>
 </g>
 <g>
 <g stroke-dasharray="0.4pt,2.0pt" stroke-dashoffset="0.0pt">
 <path d=" M  227.62195 -42.67911 L  227.62195 -535.02255  " style="fill:none"/>
 </g>
 </g>
 <g>
 <g stroke-dasharray="0.4pt,2.0pt" stroke-dashoffset="0.0pt">
 <path d=" M  256.07469 -42.67911 L  256.07469 -535.02255  " style="fill:none"/>
 </g>
 </g>
 <g>
 <g stroke-dasharray="0.4pt,2.0pt" stroke-dashoffset="0.0pt">
 <path d=" M  284.52744 -42.67911 L  284.52744 -535.02255  " style="fill:none"/>
 </g>
 </g>
 <g>
 <g stroke-dasharray="0.4pt,2.0pt" stroke-dashoffset="0.0pt">
 <path d=" M  312.98018 -42.67911 L  312.98018 -535.02255  " style="fill:none"/>
 </g>
 </g>
 <g>
 <g stroke-dasharray="0.4pt,2.0pt" stroke-dashoffset="0.0pt">
 <path d=" M  0.0 -42.67911 L  341.43292 -42.67911  " style="fill:none"/>
 </g>
 </g>
 <g>
 <g stroke-dasharray="0.4pt,2.0pt" stroke-dashoffset="0.0pt">
 <path d=" M  0.0 -60.2628 L  341.43292 -60.2628  " style="fill:none"/>
 </g>
 </g>
 <g>
 <g stroke-dasharray="0.4pt,2.0pt" stroke-dashoffset="0.0pt">
 <path d=" M  0.0 -77.8465 L  341.43292 -77.8465  " style="fill:none"/>
 </g>
 </g>
 <g>
 <g stroke-dasharray="0.4pt,2.0pt" stroke-dashoffset="0.0pt">
 <path d=" M  0.0 -95.43019 L  341.43292 -95.43019  " style="fill:none"/>
 </g>
 </g>
 <g>
 <g stroke-dasharray="0.4pt,2.0pt" stroke-dashoffset="0.0pt">
 <path d=" M  0.0 -113.01389 L  341.43292 -113.01389  " style="fill:none"/>
 </g>
 </g>
 <g>
 <g stroke-dasharray="0.4pt,2.0pt" stroke-dashoffset="0.0pt">
 <path d=" M  0.0 -130.59758 L  341.43292 -130.59758  " style="fill:none"/>
 </g>
 </g>
 <g>
 <g stroke-dasharray="0.4pt,2.0pt" stroke-dashoffset="0.0pt">
 <path d=" M  0.0 -148.18127 L  341.43292 -148.18127  " style="fill:none"/>
 </g>
 </g>
 <g>
 <g stroke-dasharray="0.4pt,2.0pt" stroke-dashoffset="0.0pt">
 <path d=" M  0.0 -165.76497 L  341.43292 -165.76497  " style="fill:none"/>
 </g>
 </g>
 <g>
 <g stroke-dasharray="0.4pt,2.0pt" stroke-dashoffset="0.0pt">
 <path d=" M  0.0 -183.34866 L  341.43292 -183.34866  " style="fill:none"/>
 </g>
 </g>
 <g>
 <g stroke-dasharray="0.4pt,2.0pt" stroke-dashoffset="0.0pt">
 <path d=" M  0.0 -200.93236 L  341.43292 -200.93236  " style="fill:none"/>
 </g>
 </g>
 <g>
 <g stroke-dasharray="0.4pt,2.0pt" stroke-dashoffset="0.0pt">
 <path d=" M  0.0 -218.51605 L  341.43292 -218.51605  " style="fill:none"/>
 </g>
 </g>
 <g>
 <g stroke-dasharray="0.4pt,2.0pt" stroke-dashoffset="0.0pt">
 <path d=" M  0.0 -236.09975 L  341.43292 -236.09975  " style="fill:none"/>
 </g>
 </g>
 <g>
 <g stroke-dasharray="0.4pt,2.0pt" stroke-dashoffset="0.0pt">
 <path d=" M  0.0 -253.68344 L  341.43292 -253.68344  " style="fill:none"/>
 </g>
 </g>
 <g>
 <g stroke-dasharray="0.4pt,2.0pt" stroke-dashoffset="0.0pt">
 <path d=" M  0.0 -271.26714 L  341.43292 -271.26714  " style="fill:none"/>
 </g>
 </g>
 <g>
 <g stroke-dasharray="0.4pt,2.0pt" stroke-dashoffset="0.0pt">
 <path d=" M  0.0 -288.85083 L  341.43292 -288.85083  " style="fill:none"/>
 </g>
 </g>
 <g>
 <g stroke-dasharray="0.4pt,2.0pt" stroke-dashoffset="0.0pt">
 <path d=" M  0.0 -306.43452 L  341.43292 -306.43452  " style="fill:none"/>
 </g>
 </g>
 <g>
 <g stroke-dasharray="0.4pt,2.0pt" stroke-dashoffset="0.0pt">
 <path d=" M  0.0 -324.01822 L  341.43292 -324.01822  " style="fill:none"/>
 </g>
 </g>
 <g>
 <g stroke-dasharray="0.4pt,2.0pt" stroke-dashoffset="0.0pt">
 <path d=" M  0.0 -341.60191 L  341.43292 -341.60191  " style="fill:none"/>
 </g>
 </g>
 <g>
 <g stroke-dasharray="0.4pt,2.0pt" stroke-dashoffset="0.0pt">
 <path d=" M  0.0 -359.18561 L  341.43292 -359.18561  " style="fill:none"/>
 </g>
 </g>
 <g>
 <g stroke-dasharray="0.4pt,2.0pt" stroke-dashoffset="0.0pt">
 <path d=" M  0.0 -376.7693 L  341.43292 -376.7693  " style="fill:none"/>
 </g>
 </g>
 <g>
 <g stroke-dasharray="0.4pt,2.0pt" stroke-dashoffset="0.0pt">
 <path d=" M  0.0 -394.353 L  341.43292 -394.353  " style="fill:none"/>
 </g>
 </g>
 <g>
 <g stroke-dasharray="0.4pt,2.0pt" stroke-dashoffset="0.0pt">
 <path d=" M  0.0 -411.93669 L  341.43292 -411.93669  " style="fill:none"/>
 </g>
 </g>
 <g>
 <g stroke-dasharray="0.4pt,2.0pt" stroke-dashoffset="0.0pt">
 <path d=" M  0.0 -429.52039 L  341.43292 -429.52039  " style="fill:none"/>
 </g>
 </g>
 <g>
 <g stroke-dasharray="0.4pt,2.0pt" stroke-dashoffset="0.0pt">
 <path d=" M  0.0 -447.10408 L  341.43292 -447.10408  " style="fill:none"/>
 </g>
 </g>
 <g>
 <g stroke-dasharray="0.4pt,2.0pt" stroke-dashoffset="0.0pt">
 <path d=" M  0.0 -464.68777 L  341.43292 -464.68777  " style="fill:none"/>
 </g>
 </g>
 <g>
 <g stroke-dasharray="0.4pt,2.0pt" stroke-dashoffset="0.0pt">
 <path d=" M  0.0 -482.27147 L  341.43292 -482.27147  " style="fill:none"/>
 </g>
 </g>
 <g>
 <g stroke-dasharray="0.4pt,2.0pt" stroke-dashoffset="0.0pt">
 <path d=" M  0.0 -499.85516 L  341.43292 -499.85516  " style="fill:none"/>
 </g>
 </g>
 <g>
 <g stroke-dasharray="0.4pt,2.0pt" stroke-dashoffset="0.0pt">
 <path d=" M  0.0 -517.43886 L  341.43292 -517.43886  " style="fill:none"/>
 </g>
 </g>
 </g>
 <g>
 <g>
 <g fill="rgb(100.0%,100.0%,100.0%)">
 <g>
 <g fill="rgb(100.0%,100.0%,100.0%)">
 <path d=" M  0.0 -12.80383 h  113.81097 v  12.80383 h  -113.81097 Z  " />
 </g>
 </g>
 <g>
 <g transform="matrix(1.0,0.0,0.0,1.0,56.90549,-6.40192)">
 <g fill="rgb(0.0%,0.0%,0.0%)">
 <text style="stroke:none" transform="scale(1,-1) translate(0.0,0)" text-anchor="middle"  font-size="12"> 
</text> 
</g>
 </g>
 </g>
 </g>
 </g>
 <g>
 <g>
 <g transform="matrix(1.0,0.0,0.0,1.0,45.9949,-9.77287)">
 <g fill="rgb(0.0%,0.0%,0.0%)">
 <text style="stroke:none" transform="scale(1,-1) translate(10.91058,0)" text-anchor="middle"  font-size="12"> 
<tspan font-family="mdputr8t" font-size="">2017</tspan></text> 
</g>
 </g>
 </g>
 </g>
 <g>
 <g fill="rgb(100.0%,100.0%,100.0%)">
 <g>
 <g fill="rgb(100.0%,100.0%,100.0%)">
 <path d=" M  113.81097 -12.80383 h  227.62195 v  12.80383 h  -227.62195 Z  " />
 </g>
 </g>
 <g>
 <g transform="matrix(1.0,0.0,0.0,1.0,227.62195,-6.40192)">
 <g fill="rgb(0.0%,0.0%,0.0%)">
 <text style="stroke:none" transform="scale(1,-1) translate(0.0,0)" text-anchor="middle"  font-size="12"> 
</text> 
</g>
 </g>
 </g>
 </g>
 </g>
 <g>
 <g>
 <g transform="matrix(1.0,0.0,0.0,1.0,216.71136,-9.77287)">
 <g fill="rgb(0.0%,0.0%,0.0%)">
 <text style="stroke:none" transform="scale(1,-1) translate(10.91058,0)" text-anchor="middle"  font-size="12"> 
<tspan font-family="mdputr8t" font-size="">2018</tspan></text> 
</g>
 </g>
 </g>
 </g>
 <g>
 <g fill="rgb(100.0%,100.0%,100.0%)">
 <g>
 <g fill="rgb(100.0%,100.0%,100.0%)">
 <path d=" M  0.0 -34.14339 h  28.45273 v  12.80383 h  -28.45273 Z  " />
 </g>
 </g>
 <g>
 <g transform="matrix(1.0,0.0,0.0,1.0,14.22636,-27.74147)">
 <g fill="rgb(0.0%,0.0%,0.0%)">
 <text style="stroke:none" transform="scale(1,-1) translate(0.0,0)" text-anchor="middle"  font-size="12"> 
</text> 
</g>
 </g>
 </g>
 </g>
 </g>
 <g>
 <g>
 <g transform="matrix(1.0,0.0,0.0,1.0,11.49872,-31.11243)">
 <g fill="rgb(0.0%,0.0%,0.0%)">
 <text style="stroke:none" transform="scale(1,-1) translate(2.72765,0)" text-anchor="middle"  font-size="12"> 
<tspan font-family="mdputr8t" font-size="">9</tspan></text> 
</g>
 </g>
 </g>
 </g>
 <g>
 <g fill="rgb(100.0%,100.0%,100.0%)">
 <g>
 <g fill="rgb(100.0%,100.0%,100.0%)">
 <path d=" M  28.45274 -34.14339 h  28.45273 v  12.80383 h  -28.45273 Z  " />
 </g>
 </g>
 <g>
 <g transform="matrix(1.0,0.0,0.0,1.0,42.67911,-27.74147)">
 <g fill="rgb(0.0%,0.0%,0.0%)">
 <text style="stroke:none" transform="scale(1,-1) translate(0.0,0)" text-anchor="middle"  font-size="12"> 
</text> 
</g>
 </g>
 </g>
 </g>
 </g>
 <g>
 <g>
 <g transform="matrix(1.0,0.0,0.0,1.0,37.22382,-31.11243)">
 <g fill="rgb(0.0%,0.0%,0.0%)">
 <text style="stroke:none" transform="scale(1,-1) translate(5.45529,0)" text-anchor="middle"  font-size="12"> 
<tspan font-family="mdputr8t" font-size="">10</tspan></text> 
</g>
 </g>
 </g>
 </g>
 <g>
 <g fill="rgb(100.0%,100.0%,100.0%)">
 <g>
 <g fill="rgb(100.0%,100.0%,100.0%)">
 <path d=" M  56.90549 -34.14339 h  28.45273 v  12.80383 h  -28.45273 Z  " />
 </g>
 </g>
 <g>
 <g transform="matrix(1.0,0.0,0.0,1.0,71.13185,-27.74147)">
 <g fill="rgb(0.0%,0.0%,0.0%)">
 <text style="stroke:none" transform="scale(1,-1) translate(0.0,0)" text-anchor="middle"  font-size="12"> 
</text> 
</g>
 </g>
 </g>
 </g>
 </g>
 <g>
 <g>
 <g transform="matrix(1.0,0.0,0.0,1.0,65.67656,-31.2102)">
 <g fill="rgb(0.0%,0.0%,0.0%)">
 <text style="stroke:none" transform="scale(1,-1) translate(5.45529,0)" text-anchor="middle"  font-size="12"> 
<tspan font-family="mdputr8t" font-size="">11</tspan></text> 
</g>
 </g>
 </g>
 </g>
 <g>
 <g fill="rgb(100.0%,100.0%,100.0%)">
 <g>
 <g fill="rgb(100.0%,100.0%,100.0%)">
 <path d=" M  85.35823 -34.14339 h  28.45273 v  12.80383 h  -28.45273 Z  " />
 </g>
 </g>
 <g>
 <g transform="matrix(1.0,0.0,0.0,1.0,99.5846,-27.74147)">
 <g fill="rgb(0.0%,0.0%,0.0%)">
 <text style="stroke:none" transform="scale(1,-1) translate(0.0,0)" text-anchor="middle"  font-size="12"> 
</text> 
</g>
 </g>
 </g>
 </g>
 </g>
 <g>
 <g>
 <g transform="matrix(1.0,0.0,0.0,1.0,94.1293,-31.2102)">
 <g fill="rgb(0.0%,0.0%,0.0%)">
 <text style="stroke:none" transform="scale(1,-1) translate(5.45529,0)" text-anchor="middle"  font-size="12"> 
<tspan font-family="mdputr8t" font-size="">12</tspan></text> 
</g>
 </g>
 </g>
 </g>
 <g>
 <g fill="rgb(100.0%,100.0%,100.0%)">
 <g>
 <g fill="rgb(100.0%,100.0%,100.0%)">
 <path d=" M  113.81097 -34.14339 h  28.45273 v  12.80383 h  -28.45273 Z  " />
 </g>
 </g>
 <g>
 <g transform="matrix(1.0,0.0,0.0,1.0,128.03734,-27.74147)">
 <g fill="rgb(0.0%,0.0%,0.0%)">
 <text style="stroke:none" transform="scale(1,-1) translate(0.0,0)" text-anchor="middle"  font-size="12"> 
</text> 
</g>
 </g>
 </g>
 </g>
 </g>
 <g>
 <g>
 <g transform="matrix(1.0,0.0,0.0,1.0,125.3097,-31.2102)">
 <g fill="rgb(0.0%,0.0%,0.0%)">
 <text style="stroke:none" transform="scale(1,-1) translate(2.72765,0)" text-anchor="middle"  font-size="12"> 
<tspan font-family="mdputr8t" font-size="">1</tspan></text> 
</g>
 </g>
 </g>
 </g>
 <g>
 <g fill="rgb(100.0%,100.0%,100.0%)">
 <g>
 <g fill="rgb(100.0%,100.0%,100.0%)">
 <path d=" M  142.26372 -34.14339 h  28.45273 v  12.80383 h  -28.45273 Z  " />
 </g>
 </g>
 <g>
 <g transform="matrix(1.0,0.0,0.0,1.0,156.49008,-27.74147)">
 <g fill="rgb(0.0%,0.0%,0.0%)">
 <text style="stroke:none" transform="scale(1,-1) translate(0.0,0)" text-anchor="middle"  font-size="12"> 
</text> 
</g>
 </g>
 </g>
 </g>
 </g>
 <g>
 <g>
 <g transform="matrix(1.0,0.0,0.0,1.0,153.76244,-31.2102)">
 <g fill="rgb(0.0%,0.0%,0.0%)">
 <text style="stroke:none" transform="scale(1,-1) translate(2.72765,0)" text-anchor="middle"  font-size="12"> 
<tspan font-family="mdputr8t" font-size="">2</tspan></text> 
</g>
 </g>
 </g>
 </g>
 <g>
 <g fill="rgb(100.0%,100.0%,100.0%)">
 <g>
 <g fill="rgb(100.0%,100.0%,100.0%)">
 <path d=" M  170.71646 -34.14339 h  28.45273 v  12.80383 h  -28.45273 Z  " />
 </g>
 </g>
 <g>
 <g transform="matrix(1.0,0.0,0.0,1.0,184.94283,-27.74147)">
 <g fill="rgb(0.0%,0.0%,0.0%)">
 <text style="stroke:none" transform="scale(1,-1) translate(0.0,0)" text-anchor="middle"  font-size="12"> 
</text> 
</g>
 </g>
 </g>
 </g>
 </g>
 <g>
 <g>
 <g transform="matrix(1.0,0.0,0.0,1.0,182.21518,-31.11243)">
 <g fill="rgb(0.0%,0.0%,0.0%)">
 <text style="stroke:none" transform="scale(1,-1) translate(2.72765,0)" text-anchor="middle"  font-size="12"> 
<tspan font-family="mdputr8t" font-size="">3</tspan></text> 
</g>
 </g>
 </g>
 </g>
 <g>
 <g fill="rgb(100.0%,100.0%,100.0%)">
 <g>
 <g fill="rgb(100.0%,100.0%,100.0%)">
 <path d=" M  199.1692 -34.14339 h  28.45273 v  12.80383 h  -28.45273 Z  " />
 </g>
 </g>
 <g>
 <g transform="matrix(1.0,0.0,0.0,1.0,213.39557,-27.74147)">
 <g fill="rgb(0.0%,0.0%,0.0%)">
 <text style="stroke:none" transform="scale(1,-1) translate(0.0,0)" text-anchor="middle"  font-size="12"> 
</text> 
</g>
 </g>
 </g>
 </g>
 </g>
 <g>
 <g>
 <g transform="matrix(1.0,0.0,0.0,1.0,210.66792,-31.2102)">
 <g fill="rgb(0.0%,0.0%,0.0%)">
 <text style="stroke:none" transform="scale(1,-1) translate(2.72765,0)" text-anchor="middle"  font-size="12"> 
<tspan font-family="mdputr8t" font-size="">4</tspan></text> 
</g>
 </g>
 </g>
 </g>
 <g>
 <g fill="rgb(100.0%,100.0%,100.0%)">
 <g>
 <g fill="rgb(100.0%,100.0%,100.0%)">
 <path d=" M  227.62195 -34.14339 h  28.45273 v  12.80383 h  -28.45273 Z  " />
 </g>
 </g>
 <g>
 <g transform="matrix(1.0,0.0,0.0,1.0,241.84831,-27.74147)">
 <g fill="rgb(0.0%,0.0%,0.0%)">
 <text style="stroke:none" transform="scale(1,-1) translate(0.0,0)" text-anchor="middle"  font-size="12"> 
</text> 
</g>
 </g>
 </g>
 </g>
 </g>
 <g>
 <g>
 <g transform="matrix(1.0,0.0,0.0,1.0,239.12067,-31.11243)">
 <g fill="rgb(0.0%,0.0%,0.0%)">
 <text style="stroke:none" transform="scale(1,-1) translate(2.72765,0)" text-anchor="middle"  font-size="12"> 
<tspan font-family="mdputr8t" font-size="">5</tspan></text> 
</g>
 </g>
 </g>
 </g>
 <g>
 <g fill="rgb(100.0%,100.0%,100.0%)">
 <g>
 <g fill="rgb(100.0%,100.0%,100.0%)">
 <path d=" M  256.07469 -34.14339 h  28.45273 v  12.80383 h  -28.45273 Z  " />
 </g>
 </g>
 <g>
 <g transform="matrix(1.0,0.0,0.0,1.0,270.30106,-27.74147)">
 <g fill="rgb(0.0%,0.0%,0.0%)">
 <text style="stroke:none" transform="scale(1,-1) translate(0.0,0)" text-anchor="middle"  font-size="12"> 
</text> 
</g>
 </g>
 </g>
 </g>
 </g>
 <g>
 <g>
 <g transform="matrix(1.0,0.0,0.0,1.0,267.57341,-31.11243)">
 <g fill="rgb(0.0%,0.0%,0.0%)">
 <text style="stroke:none" transform="scale(1,-1) translate(2.72765,0)" text-anchor="middle"  font-size="12"> 
<tspan font-family="mdputr8t" font-size="">6</tspan></text> 
</g>
 </g>
 </g>
 </g>
 <g>
 <g fill="rgb(100.0%,100.0%,100.0%)">
 <g>
 <g fill="rgb(100.0%,100.0%,100.0%)">
 <path d=" M  284.52744 -34.14339 h  28.45273 v  12.80383 h  -28.45273 Z  " />
 </g>
 </g>
 <g>
 <g transform="matrix(1.0,0.0,0.0,1.0,298.7538,-27.74147)">
 <g fill="rgb(0.0%,0.0%,0.0%)">
 <text style="stroke:none" transform="scale(1,-1) translate(0.0,0)" text-anchor="middle"  font-size="12"> 
</text> 
</g>
 </g>
 </g>
 </g>
 </g>
 <g>
 <g>
 <g transform="matrix(1.0,0.0,0.0,1.0,296.02615,-31.11243)">
 <g fill="rgb(0.0%,0.0%,0.0%)">
 <text style="stroke:none" transform="scale(1,-1) translate(2.72765,0)" text-anchor="middle"  font-size="12"> 
<tspan font-family="mdputr8t" font-size="">7</tspan></text> 
</g>
 </g>
 </g>
 </g>
 <g>
 <g fill="rgb(100.0%,100.0%,100.0%)">
 <g>
 <g fill="rgb(100.0%,100.0%,100.0%)">
 <path d=" M  312.98018 -34.14339 h  28.45273 v  12.80383 h  -28.45273 Z  " />
 </g>
 </g>
 <g>
 <g transform="matrix(1.0,0.0,0.0,1.0,327.20654,-27.74147)">
 <g fill="rgb(0.0%,0.0%,0.0%)">
 <text style="stroke:none" transform="scale(1,-1) translate(0.0,0)" text-anchor="middle"  font-size="12"> 
</text> 
</g>
 </g>
 </g>
 </g>
 </g>
 <g>
 <g>
 <g transform="matrix(1.0,0.0,0.0,1.0,324.4789,-31.11243)">
 <g fill="rgb(0.0%,0.0%,0.0%)">
 <text style="stroke:none" transform="scale(1,-1) translate(2.72765,0)" text-anchor="middle"  font-size="12"> 
<tspan font-family="mdputr8t" font-size="">8</tspan></text> 
</g>
 </g>
 </g>
 </g>
 <g>
 <g>
 <g fill="rgb(0.0%,0.0%,0.0%)">
 <g>
 <g fill="rgb(0.0%,0.0%,0.0%)">
 <path d=" M  4.18488 -51.47095 L  0.71114 -48.03711 L  -2.7626 -51.47095 L  0.71114 -54.90479 Z  " />
 </g>
 </g>
 <g>
 <g transform="matrix(1.0,0.0,0.0,1.0,0.71114,-51.47095)">
 <g fill="rgb(0.0%,0.0%,0.0%)">
 <text style="stroke:none" transform="scale(1,-1) translate(0.0,0)" text-anchor="middle"  font-size="12"> 
</text> 
</g>
 </g>
 </g>
 </g>
 </g>
 </g>
 <g>
 </g>
 <g>
 <g>
 <g transform="matrix(1.0,0.0,0.0,1.0,-67.7142,-54.3709)">
 <g fill="rgb(0.0%,0.0%,0.0%)">
 <text style="stroke:none" transform="scale(1,-1) translate(31.8773,0)" text-anchor="middle"  font-size="12"> 
<a 
href="#K/O"><tspan font-family="mdputri8t" font-size="">K/O</tspan></a> <tspan font-family="mdputri8t" font-size="">, MIL-01</tspan></text> 
</g>
 </g>
 </g>
 </g>
 <g>
 <g>
 <g fill="rgb(100.0%,100.0%,100.0%)">
 <g>
 <g fill="rgb(100.0%,100.0%,100.0%)">
 <path d=" M  0.0 -75.20874 h  28.45273 v  12.3085 h  -28.45273 Z  " />
 </g>
 </g>
 <g>
 <g transform="matrix(1.0,0.0,0.0,1.0,14.22636,-69.05449)">
 <g fill="rgb(0.0%,0.0%,0.0%)">
 <text style="stroke:none" transform="scale(1,-1) translate(0.0,0)" text-anchor="middle"  font-size="12"> 
</text> 
</g>
 </g>
 </g>
 </g>
 </g>
 </g>
 <g>
 </g>
 <g>
 <g>
 <g transform="matrix(1.0,0.0,0.0,1.0,-0.48466,-71.45445)">
 <g fill="rgb(0.0%,0.0%,0.0%)">
 <text style="stroke:none" transform="scale(1,-1) translate(14.71103,0)" text-anchor="middle"  font-size="12"> 
<tspan font-family="mdputr8t" font-size="">WP100</tspan></text> 
</g>
 </g>
 </g>
 </g>
 <g>
 <g>
 <g fill="rgb(100.0%,100.0%,100.0%)">
 <g>
 <g fill="rgb(100.0%,100.0%,100.0%)">
 <path d=" M  28.45274 -92.79243 h  142.2637 v  12.3085 h  -142.2637 Z  " />
 </g>
 </g>
 <g>
 <g transform="matrix(1.0,0.0,0.0,1.0,99.5846,-86.63818)">
 <g fill="rgb(0.0%,0.0%,0.0%)">
 <text style="stroke:none" transform="scale(1,-1) translate(0.0,0)" text-anchor="middle"  font-size="12"> 
</text> 
</g>
 </g>
 </g>
 </g>
 </g>
 </g>
 <g>
 </g>
 <g>
 <g>
 <g transform="matrix(1.0,0.0,0.0,1.0,84.87357,-89.03815)">
 <g fill="rgb(0.0%,0.0%,0.0%)">
 <text style="stroke:none" transform="scale(1,-1) translate(14.71103,0)" text-anchor="middle"  font-size="12"> 
<tspan font-family="mdputr8t" font-size="">WP200</tspan></text> 
</g>
 </g>
 </g>
 </g>
 <g>
 <g>
 <g fill="rgb(100.0%,100.0%,100.0%)">
 <g>
 <g fill="rgb(100.0%,100.0%,100.0%)">
 <path d=" M  28.45274 -110.37613 h  28.45273 v  12.3085 h  -28.45273 Z  " />
 </g>
 </g>
 <g>
 <g transform="matrix(1.0,0.0,0.0,1.0,42.67911,-104.22188)">
 <g fill="rgb(0.0%,0.0%,0.0%)">
 <text style="stroke:none" transform="scale(1,-1) translate(0.0,0)" text-anchor="middle"  font-size="12"> 
</text> 
</g>
 </g>
 </g>
 </g>
 </g>
 </g>
 <g>
 </g>
 <g>
 <g>
 <g transform="matrix(1.0,0.0,0.0,1.0,27.96808,-106.62184)">
 <g fill="rgb(0.0%,0.0%,0.0%)">
 <text style="stroke:none" transform="scale(1,-1) translate(14.71103,0)" text-anchor="middle"  font-size="12"> 
<tspan font-family="mdputr8t" font-size="">WP210</tspan></text> 
</g>
 </g>
 </g>
 </g>
 <g>
 <g>
 <g fill="rgb(100.0%,100.0%,100.0%)">
 <g>
 <g fill="rgb(100.0%,100.0%,100.0%)">
 <path d=" M  56.90549 -127.95982 h  85.35822 v  12.3085 h  -85.35822 Z  " />
 </g>
 </g>
 <g>
 <g transform="matrix(1.0,0.0,0.0,1.0,99.5846,-121.80557)">
 <g fill="rgb(0.0%,0.0%,0.0%)">
 <text style="stroke:none" transform="scale(1,-1) translate(0.0,0)" text-anchor="middle"  font-size="12"> 
</text> 
</g>
 </g>
 </g>
 </g>
 </g>
 </g>
 <g>
 </g>
 <g>
 <g>
 <g transform="matrix(1.0,0.0,0.0,1.0,84.87357,-124.20554)">
 <g fill="rgb(0.0%,0.0%,0.0%)">
 <text style="stroke:none" transform="scale(1,-1) translate(14.71103,0)" text-anchor="middle"  font-size="12"> 
<tspan font-family="mdputr8t" font-size="">WP220</tspan></text> 
</g>
 </g>
 </g>
 </g>
 <g>
 <g>
 <g fill="rgb(100.0%,100.0%,100.0%)">
 <g>
 <g fill="rgb(100.0%,100.0%,100.0%)">
 <path d=" M  56.90549 -145.54352 h  56.90549 v  12.3085 h  -56.90549 Z  " />
 </g>
 </g>
 <g>
 <g transform="matrix(1.0,0.0,0.0,1.0,85.35823,-139.38927)">
 <g fill="rgb(0.0%,0.0%,0.0%)">
 <text style="stroke:none" transform="scale(1,-1) translate(0.0,0)" text-anchor="middle"  font-size="12"> 
</text> 
</g>
 </g>
 </g>
 </g>
 </g>
 </g>
 <g>
 </g>
 <g>
 <g>
 <g transform="matrix(1.0,0.0,0.0,1.0,70.6472,-141.78923)">
 <g fill="rgb(0.0%,0.0%,0.0%)">
 <text style="stroke:none" transform="scale(1,-1) translate(14.71103,0)" text-anchor="middle"  font-size="12"> 
<tspan font-family="mdputr8t" font-size="">WP221</tspan></text> 
</g>
 </g>
 </g>
 </g>
 <g>
 <g>
 <g fill="rgb(100.0%,100.0%,100.0%)">
 <g>
 <g fill="rgb(100.0%,100.0%,100.0%)">
 <path d=" M  56.90549 -163.12721 h  56.90549 v  12.3085 h  -56.90549 Z  " />
 </g>
 </g>
 <g>
 <g transform="matrix(1.0,0.0,0.0,1.0,85.35823,-156.97296)">
 <g fill="rgb(0.0%,0.0%,0.0%)">
 <text style="stroke:none" transform="scale(1,-1) translate(0.0,0)" text-anchor="middle"  font-size="12"> 
</text> 
</g>
 </g>
 </g>
 </g>
 </g>
 </g>
 <g>
 </g>
 <g>
 <g>
 <g transform="matrix(1.0,0.0,0.0,1.0,70.6472,-159.37292)">
 <g fill="rgb(0.0%,0.0%,0.0%)">
 <text style="stroke:none" transform="scale(1,-1) translate(14.71103,0)" text-anchor="middle"  font-size="12"> 
<tspan font-family="mdputr8t" font-size="">WP222</tspan></text> 
</g>
 </g>
 </g>
 </g>
 <g>
 <g>
 <g fill="rgb(100.0%,100.0%,100.0%)">
 <g>
 <g fill="rgb(100.0%,100.0%,100.0%)">
 <path d=" M  56.90549 -180.7109 h  56.90549 v  12.3085 h  -56.90549 Z  " />
 </g>
 </g>
 <g>
 <g transform="matrix(1.0,0.0,0.0,1.0,85.35823,-174.55666)">
 <g fill="rgb(0.0%,0.0%,0.0%)">
 <text style="stroke:none" transform="scale(1,-1) translate(0.0,0)" text-anchor="middle"  font-size="12"> 
</text> 
</g>
 </g>
 </g>
 </g>
 </g>
 </g>
 <g>
 </g>
 <g>
 <g>
 <g transform="matrix(1.0,0.0,0.0,1.0,70.6472,-176.95662)">
 <g fill="rgb(0.0%,0.0%,0.0%)">
 <text style="stroke:none" transform="scale(1,-1) translate(14.71103,0)" text-anchor="middle"  font-size="12"> 
<tspan font-family="mdputr8t" font-size="">WP223</tspan></text> 
</g>
 </g>
 </g>
 </g>
 <g>
 <g>
 <g fill="rgb(100.0%,100.0%,100.0%)">
 <g>
 <g fill="rgb(100.0%,100.0%,100.0%)">
 <path d=" M  56.90549 -198.2946 h  85.35822 v  12.3085 h  -85.35822 Z  " />
 </g>
 </g>
 <g>
 <g transform="matrix(1.0,0.0,0.0,1.0,99.5846,-192.14035)">
 <g fill="rgb(0.0%,0.0%,0.0%)">
 <text style="stroke:none" transform="scale(1,-1) translate(0.0,0)" text-anchor="middle"  font-size="12"> 
</text> 
</g>
 </g>
 </g>
 </g>
 </g>
 </g>
 <g>
 </g>
 <g>
 <g>
 <g transform="matrix(1.0,0.0,0.0,1.0,84.87357,-194.54031)">
 <g fill="rgb(0.0%,0.0%,0.0%)">
 <text style="stroke:none" transform="scale(1,-1) translate(14.71103,0)" text-anchor="middle"  font-size="12"> 
<tspan font-family="mdputr8t" font-size="">WP230</tspan></text> 
</g>
 </g>
 </g>
 </g>
 <g>
 <g>
 <g fill="rgb(100.0%,100.0%,100.0%)">
 <g>
 <g fill="rgb(100.0%,100.0%,100.0%)">
 <path d=" M  56.90549 -215.8783 h  56.90549 v  12.3085 h  -56.90549 Z  " />
 </g>
 </g>
 <g>
 <g transform="matrix(1.0,0.0,0.0,1.0,85.35823,-209.72404)">
 <g fill="rgb(0.0%,0.0%,0.0%)">
 <text style="stroke:none" transform="scale(1,-1) translate(0.0,0)" text-anchor="middle"  font-size="12"> 
</text> 
</g>
 </g>
 </g>
 </g>
 </g>
 </g>
 <g>
 </g>
 <g>
 <g>
 <g transform="matrix(1.0,0.0,0.0,1.0,70.6472,-212.12401)">
 <g fill="rgb(0.0%,0.0%,0.0%)">
 <text style="stroke:none" transform="scale(1,-1) translate(14.71103,0)" text-anchor="middle"  font-size="12"> 
<tspan font-family="mdputr8t" font-size="">WP231</tspan></text> 
</g>
 </g>
 </g>
 </g>
 <g>
 <g>
 <g fill="rgb(100.0%,100.0%,100.0%)">
 <g>
 <g fill="rgb(100.0%,100.0%,100.0%)">
 <path d=" M  56.90549 -233.46199 h  56.90549 v  12.3085 h  -56.90549 Z  " />
 </g>
 </g>
 <g>
 <g transform="matrix(1.0,0.0,0.0,1.0,85.35823,-227.30774)">
 <g fill="rgb(0.0%,0.0%,0.0%)">
 <text style="stroke:none" transform="scale(1,-1) translate(0.0,0)" text-anchor="middle"  font-size="12"> 
</text> 
</g>
 </g>
 </g>
 </g>
 </g>
 </g>
 <g>
 </g>
 <g>
 <g>
 <g transform="matrix(1.0,0.0,0.0,1.0,70.6472,-229.7077)">
 <g fill="rgb(0.0%,0.0%,0.0%)">
 <text style="stroke:none" transform="scale(1,-1) translate(14.71103,0)" text-anchor="middle"  font-size="12"> 
<tspan font-family="mdputr8t" font-size="">WP232</tspan></text> 
</g>
 </g>
 </g>
 </g>
 <g>
 <g>
 <g fill="rgb(0.0%,0.0%,0.0%)">
 <g>
 <g fill="rgb(0.0%,0.0%,0.0%)">
 <path d=" M  174.90135 -244.89159 L  171.4276 -241.45775 L  167.95384 -244.89159 L  171.4276 -248.32542 Z  " />
 </g>
 </g>
 <g>
 <g transform="matrix(1.0,0.0,0.0,1.0,171.4276,-244.89159)">
 <g fill="rgb(0.0%,0.0%,0.0%)">
 <text style="stroke:none" transform="scale(1,-1) translate(0.0,0)" text-anchor="middle"  font-size="12"> 
</text> 
</g>
 </g>
 </g>
 </g>
 </g>
 </g>
 <g>
 </g>
 <g>
 <g>
 <g transform="matrix(1.0,0.0,0.0,1.0,-70.9516,-247.79153)">
 <g fill="rgb(0.0%,0.0%,0.0%)">
 <text style="stroke:none" transform="scale(1,-1) translate(33.496,0)" text-anchor="middle"  font-size="12"> 
<a 
href="#MTR"><tspan font-family="mdputri8t" font-size="">MTR</tspan></a> <tspan font-family="mdputri8t" font-size="">, MIL-02</tspan></text> 
</g>
 </g>
 </g>
 </g>
 <g>
 <g>
 <g fill="rgb(100.0%,100.0%,100.0%)">
 <g>
 <g fill="rgb(100.0%,100.0%,100.0%)">
 <path d=" M  170.71646 -268.62938 h  56.90549 v  12.3085 h  -56.90549 Z  " />
 </g>
 </g>
 <g>
 <g transform="matrix(1.0,0.0,0.0,1.0,199.1692,-262.47513)">
 <g fill="rgb(0.0%,0.0%,0.0%)">
 <text style="stroke:none" transform="scale(1,-1) translate(0.0,0)" text-anchor="middle"  font-size="12"> 
</text> 
</g>
 </g>
 </g>
 </g>
 </g>
 </g>
 <g>
 </g>
 <g>
 <g>
 <g transform="matrix(1.0,0.0,0.0,1.0,184.45818,-264.87509)">
 <g fill="rgb(0.0%,0.0%,0.0%)">
 <text style="stroke:none" transform="scale(1,-1) translate(14.71103,0)" text-anchor="middle"  font-size="12"> 
<tspan font-family="mdputr8t" font-size="">WP300</tspan></text> 
</g>
 </g>
 </g>
 </g>
 <g>
 <g>
 <g fill="rgb(0.0%,0.0%,0.0%)">
 <g>
 <g fill="rgb(0.0%,0.0%,0.0%)">
 <path d=" M  231.80684 -280.05898 L  228.33308 -276.62514 L  224.85933 -280.05898 L  228.33308 -283.49281 Z  " />
 </g>
 </g>
 <g>
 <g transform="matrix(1.0,0.0,0.0,1.0,228.33308,-280.05898)">
 <g fill="rgb(0.0%,0.0%,0.0%)">
 <text style="stroke:none" transform="scale(1,-1) translate(0.0,0)" text-anchor="middle"  font-size="12"> 
</text> 
</g>
 </g>
 </g>
 </g>
 </g>
 </g>
 <g>
 </g>
 <g>
 <g>
 <g transform="matrix(1.0,0.0,0.0,1.0,-40.98059,-282.95892)">
 <g fill="rgb(0.0%,0.0%,0.0%)">
 <text style="stroke:none" transform="scale(1,-1) translate(18.5105,0)" text-anchor="middle"  font-size="12"> 
<tspan font-family="mdputri8t" font-size="">MIL-03</tspan></text> 
</g>
 </g>
 </g>
 </g>
 <g>
 <g>
 <g fill="rgb(100.0%,100.0%,100.0%)">
 <g>
 <g fill="rgb(100.0%,100.0%,100.0%)">
 <path d=" M  170.71646 -303.79677 h  170.71646 v  12.3085 h  -170.71646 Z  " />
 </g>
 </g>
 <g>
 <g transform="matrix(1.0,0.0,0.0,1.0,256.07469,-297.64252)">
 <g fill="rgb(0.0%,0.0%,0.0%)">
 <text style="stroke:none" transform="scale(1,-1) translate(0.0,0)" text-anchor="middle"  font-size="12"> 
</text> 
</g>
 </g>
 </g>
 </g>
 </g>
 </g>
 <g>
 </g>
 <g>
 <g>
 <g transform="matrix(1.0,0.0,0.0,1.0,241.36366,-300.04248)">
 <g fill="rgb(0.0%,0.0%,0.0%)">
 <text style="stroke:none" transform="scale(1,-1) translate(14.71103,0)" text-anchor="middle"  font-size="12"> 
<tspan font-family="mdputr8t" font-size="">WP400</tspan></text> 
</g>
 </g>
 </g>
 </g>
 <g>
 <g>
 <g fill="rgb(100.0%,100.0%,100.0%)">
 <g>
 <g fill="rgb(100.0%,100.0%,100.0%)">
 <path d=" M  170.71646 -321.38046 h  113.81097 v  12.3085 h  -113.81097 Z  " />
 </g>
 </g>
 <g>
 <g transform="matrix(1.0,0.0,0.0,1.0,227.62195,-315.22621)">
 <g fill="rgb(0.0%,0.0%,0.0%)">
 <text style="stroke:none" transform="scale(1,-1) translate(0.0,0)" text-anchor="middle"  font-size="12"> 
</text> 
</g>
 </g>
 </g>
 </g>
 </g>
 </g>
 <g>
 </g>
 <g>
 <g>
 <g transform="matrix(1.0,0.0,0.0,1.0,212.91092,-317.62617)">
 <g fill="rgb(0.0%,0.0%,0.0%)">
 <text style="stroke:none" transform="scale(1,-1) translate(14.71103,0)" text-anchor="middle"  font-size="12"> 
<tspan font-family="mdputr8t" font-size="">WP411</tspan></text> 
</g>
 </g>
 </g>
 </g>
 <g>
 <g>
 <g fill="rgb(100.0%,100.0%,100.0%)">
 <g>
 <g fill="rgb(100.0%,100.0%,100.0%)">
 <path d=" M  170.71646 -338.96416 h  113.81097 v  12.3085 h  -113.81097 Z  " />
 </g>
 </g>
 <g>
 <g transform="matrix(1.0,0.0,0.0,1.0,227.62195,-332.8099)">
 <g fill="rgb(0.0%,0.0%,0.0%)">
 <text style="stroke:none" transform="scale(1,-1) translate(0.0,0)" text-anchor="middle"  font-size="12"> 
</text> 
</g>
 </g>
 </g>
 </g>
 </g>
 </g>
 <g>
 </g>
 <g>
 <g>
 <g transform="matrix(1.0,0.0,0.0,1.0,212.91092,-335.20987)">
 <g fill="rgb(0.0%,0.0%,0.0%)">
 <text style="stroke:none" transform="scale(1,-1) translate(14.71103,0)" text-anchor="middle"  font-size="12"> 
<tspan font-family="mdputr8t" font-size="">WP412</tspan></text> 
</g>
 </g>
 </g>
 </g>
 <g>
 <g>
 <g fill="rgb(100.0%,100.0%,100.0%)">
 <g>
 <g fill="rgb(100.0%,100.0%,100.0%)">
 <path d=" M  170.71646 -356.54785 h  113.81097 v  12.3085 h  -113.81097 Z  " />
 </g>
 </g>
 <g>
 <g transform="matrix(1.0,0.0,0.0,1.0,227.62195,-350.3936)">
 <g fill="rgb(0.0%,0.0%,0.0%)">
 <text style="stroke:none" transform="scale(1,-1) translate(0.0,0)" text-anchor="middle"  font-size="12"> 
</text> 
</g>
 </g>
 </g>
 </g>
 </g>
 </g>
 <g>
 </g>
 <g>
 <g>
 <g transform="matrix(1.0,0.0,0.0,1.0,212.91092,-352.79356)">
 <g fill="rgb(0.0%,0.0%,0.0%)">
 <text style="stroke:none" transform="scale(1,-1) translate(14.71103,0)" text-anchor="middle"  font-size="12"> 
<tspan font-family="mdputr8t" font-size="">WP413</tspan></text> 
</g>
 </g>
 </g>
 </g>
 <g>
 <g>
 <g fill="rgb(100.0%,100.0%,100.0%)">
 <g>
 <g fill="rgb(100.0%,100.0%,100.0%)">
 <path d=" M  199.1692 -374.13155 h  113.81097 v  12.3085 h  -113.81097 Z  " />
 </g>
 </g>
 <g>
 <g transform="matrix(1.0,0.0,0.0,1.0,256.07469,-367.9773)">
 <g fill="rgb(0.0%,0.0%,0.0%)">
 <text style="stroke:none" transform="scale(1,-1) translate(0.0,0)" text-anchor="middle"  font-size="12"> 
</text> 
</g>
 </g>
 </g>
 </g>
 </g>
 </g>
 <g>
 </g>
 <g>
 <g>
 <g transform="matrix(1.0,0.0,0.0,1.0,241.36366,-370.37726)">
 <g fill="rgb(0.0%,0.0%,0.0%)">
 <text style="stroke:none" transform="scale(1,-1) translate(14.71103,0)" text-anchor="middle"  font-size="12"> 
<tspan font-family="mdputr8t" font-size="">WP421</tspan></text> 
</g>
 </g>
 </g>
 </g>
 <g>
 <g>
 <g fill="rgb(100.0%,100.0%,100.0%)">
 <g>
 <g fill="rgb(100.0%,100.0%,100.0%)">
 <path d=" M  199.1692 -391.71524 h  113.81097 v  12.3085 h  -113.81097 Z  " />
 </g>
 </g>
 <g>
 <g transform="matrix(1.0,0.0,0.0,1.0,256.07469,-385.56099)">
 <g fill="rgb(0.0%,0.0%,0.0%)">
 <text style="stroke:none" transform="scale(1,-1) translate(0.0,0)" text-anchor="middle"  font-size="12"> 
</text> 
</g>
 </g>
 </g>
 </g>
 </g>
 </g>
 <g>
 </g>
 <g>
 <g>
 <g transform="matrix(1.0,0.0,0.0,1.0,241.36366,-387.96095)">
 <g fill="rgb(0.0%,0.0%,0.0%)">
 <text style="stroke:none" transform="scale(1,-1) translate(14.71103,0)" text-anchor="middle"  font-size="12"> 
<tspan font-family="mdputr8t" font-size="">WP422</tspan></text> 
</g>
 </g>
 </g>
 </g>
 <g>
 <g>
 <g fill="rgb(100.0%,100.0%,100.0%)">
 <g>
 <g fill="rgb(100.0%,100.0%,100.0%)">
 <path d=" M  199.1692 -409.29893 h  113.81097 v  12.3085 h  -113.81097 Z  " />
 </g>
 </g>
 <g>
 <g transform="matrix(1.0,0.0,0.0,1.0,256.07469,-403.14468)">
 <g fill="rgb(0.0%,0.0%,0.0%)">
 <text style="stroke:none" transform="scale(1,-1) translate(0.0,0)" text-anchor="middle"  font-size="12"> 
</text> 
</g>
 </g>
 </g>
 </g>
 </g>
 </g>
 <g>
 </g>
 <g>
 <g>
 <g transform="matrix(1.0,0.0,0.0,1.0,241.36366,-405.54465)">
 <g fill="rgb(0.0%,0.0%,0.0%)">
 <text style="stroke:none" transform="scale(1,-1) translate(14.71103,0)" text-anchor="middle"  font-size="12"> 
<tspan font-family="mdputr8t" font-size="">WP423</tspan></text> 
</g>
 </g>
 </g>
 </g>
 <g>
 <g>
 <g fill="rgb(100.0%,100.0%,100.0%)">
 <g>
 <g fill="rgb(100.0%,100.0%,100.0%)">
 <path d=" M  199.1692 -426.88263 h  113.81097 v  12.3085 h  -113.81097 Z  " />
 </g>
 </g>
 <g>
 <g transform="matrix(1.0,0.0,0.0,1.0,256.07469,-420.72838)">
 <g fill="rgb(0.0%,0.0%,0.0%)">
 <text style="stroke:none" transform="scale(1,-1) translate(0.0,0)" text-anchor="middle"  font-size="12"> 
</text> 
</g>
 </g>
 </g>
 </g>
 </g>
 </g>
 <g>
 </g>
 <g>
 <g>
 <g transform="matrix(1.0,0.0,0.0,1.0,241.36366,-423.12834)">
 <g fill="rgb(0.0%,0.0%,0.0%)">
 <text style="stroke:none" transform="scale(1,-1) translate(14.71103,0)" text-anchor="middle"  font-size="12"> 
<tspan font-family="mdputr8t" font-size="">WP424</tspan></text> 
</g>
 </g>
 </g>
 </g>
 <g>
 <g>
 <g fill="rgb(100.0%,100.0%,100.0%)">
 <g>
 <g fill="rgb(100.0%,100.0%,100.0%)">
 <path d=" M  199.1692 -444.46632 h  142.2637 v  12.3085 h  -142.2637 Z  " />
 </g>
 </g>
 <g>
 <g transform="matrix(1.0,0.0,0.0,1.0,270.30106,-438.31207)">
 <g fill="rgb(0.0%,0.0%,0.0%)">
 <text style="stroke:none" transform="scale(1,-1) translate(0.0,0)" text-anchor="middle"  font-size="12"> 
</text> 
</g>
 </g>
 </g>
 </g>
 </g>
 </g>
 <g>
 </g>
 <g>
 <g>
 <g transform="matrix(1.0,0.0,0.0,1.0,255.59003,-440.71204)">
 <g fill="rgb(0.0%,0.0%,0.0%)">
 <text style="stroke:none" transform="scale(1,-1) translate(14.71103,0)" text-anchor="middle"  font-size="12"> 
<tspan font-family="mdputr8t" font-size="">WP430</tspan></text> 
</g>
 </g>
 </g>
 </g>
 <g>
 <g>
 <g fill="rgb(0.0%,0.0%,0.0%)">
 <g>
 <g fill="rgb(0.0%,0.0%,0.0%)">
 <path d=" M  345.61781 -455.89592 L  342.14406 -452.46208 L  338.6703 -455.89592 L  342.14406 -459.32976 Z  " />
 </g>
 </g>
 <g>
 <g transform="matrix(1.0,0.0,0.0,1.0,342.14406,-455.89592)">
 <g fill="rgb(0.0%,0.0%,0.0%)">
 <text style="stroke:none" transform="scale(1,-1) translate(0.0,0)" text-anchor="middle"  font-size="12"> 
</text> 
</g>
 </g>
 </g>
 </g>
 </g>
 </g>
 <g>
 </g>
 <g>
 <g>
 <g transform="matrix(1.0,0.0,0.0,1.0,-40.98059,-458.79587)">
 <g fill="rgb(0.0%,0.0%,0.0%)">
 <text style="stroke:none" transform="scale(1,-1) translate(18.5105,0)" text-anchor="middle"  font-size="12"> 
<tspan font-family="mdputri8t" font-size="">MIL-04</tspan></text> 
</g>
 </g>
 </g>
 </g>
 <g>
 <g>
 <g fill="rgb(100.0%,100.0%,100.0%)">
 <g>
 <g fill="rgb(100.0%,100.0%,100.0%)">
 <path d=" M  227.62195 -479.63371 h  113.81097 v  12.3085 h  -113.81097 Z  " />
 </g>
 </g>
 <g>
 <g transform="matrix(1.0,0.0,0.0,1.0,284.52744,-473.47946)">
 <g fill="rgb(0.0%,0.0%,0.0%)">
 <text style="stroke:none" transform="scale(1,-1) translate(0.0,0)" text-anchor="middle"  font-size="12"> 
</text> 
</g>
 </g>
 </g>
 </g>
 </g>
 </g>
 <g>
 </g>
 <g>
 <g>
 <g transform="matrix(1.0,0.0,0.0,1.0,269.8164,-475.87943)">
 <g fill="rgb(0.0%,0.0%,0.0%)">
 <text style="stroke:none" transform="scale(1,-1) translate(14.71103,0)" text-anchor="middle"  font-size="12"> 
<tspan font-family="mdputr8t" font-size="">WP440</tspan></text> 
</g>
 </g>
 </g>
 </g>
 <g>
 <g>
 <g fill="rgb(100.0%,100.0%,100.0%)">
 <g>
 <g fill="rgb(100.0%,100.0%,100.0%)">
 <path d=" M  227.62195 -497.2174 h  113.81097 v  12.3085 h  -113.81097 Z  " />
 </g>
 </g>
 <g>
 <g transform="matrix(1.0,0.0,0.0,1.0,284.52744,-491.06316)">
 <g fill="rgb(0.0%,0.0%,0.0%)">
 <text style="stroke:none" transform="scale(1,-1) translate(0.0,0)" text-anchor="middle"  font-size="12"> 
</text> 
</g>
 </g>
 </g>
 </g>
 </g>
 </g>
 <g>
 </g>
 <g>
 <g>
 <g transform="matrix(1.0,0.0,0.0,1.0,269.8164,-493.46312)">
 <g fill="rgb(0.0%,0.0%,0.0%)">
 <text style="stroke:none" transform="scale(1,-1) translate(14.71103,0)" text-anchor="middle"  font-size="12"> 
<tspan font-family="mdputr8t" font-size="">WP450</tspan></text> 
</g>
 </g>
 </g>
 </g>
 <g>
 <g>
 <g fill="rgb(100.0%,100.0%,100.0%)">
 <g>
 <g fill="rgb(100.0%,100.0%,100.0%)">
 <path d=" M  256.07469 -514.8011 h  85.35822 v  12.3085 h  -85.35822 Z  " />
 </g>
 </g>
 <g>
 <g transform="matrix(1.0,0.0,0.0,1.0,298.7538,-508.64685)">
 <g fill="rgb(0.0%,0.0%,0.0%)">
 <text style="stroke:none" transform="scale(1,-1) translate(0.0,0)" text-anchor="middle"  font-size="12"> 
</text> 
</g>
 </g>
 </g>
 </g>
 </g>
 </g>
 <g>
 </g>
 <g>
 <g>
 <g transform="matrix(1.0,0.0,0.0,1.0,284.04277,-511.04681)">
 <g fill="rgb(0.0%,0.0%,0.0%)">
 <text style="stroke:none" transform="scale(1,-1) translate(14.71103,0)" text-anchor="middle"  font-size="12"> 
<tspan font-family="mdputr8t" font-size="">WP500</tspan></text> 
</g>
 </g>
 </g>
 </g>
 <g>
 <g>
 <g fill="rgb(0.0%,0.0%,0.0%)">
 <g>
 <g fill="rgb(0.0%,0.0%,0.0%)">
 <path d=" M  345.61781 -526.2307 L  342.14406 -522.79686 L  338.6703 -526.2307 L  342.14406 -529.66454 Z  " />
 </g>
 </g>
 <g>
 <g transform="matrix(1.0,0.0,0.0,1.0,342.14406,-526.2307)">
 <g fill="rgb(0.0%,0.0%,0.0%)">
 <text style="stroke:none" transform="scale(1,-1) translate(0.0,0)" text-anchor="middle"  font-size="12"> 
</text> 
</g>
 </g>
 </g>
 </g>
 </g>
 </g>
 <g>
 </g>
 <g>
 <g>
 <g transform="matrix(1.0,0.0,0.0,1.0,-37.08899,-529.13065)">
 <g fill="rgb(0.0%,0.0%,0.0%)">
 <text style="stroke:none" transform="scale(1,-1) translate(16.5647,0)" text-anchor="middle"  font-size="12"> 
<tspan font-family="mdputri8t" font-size="">ML-05</tspan></text> 
</g>
 </g>
 </g>
 </g>
 <g>
 <g stroke-width="0.4pt">
 </g>
 </g>
 </g>
 </g>
 </g>
 </g>
 </g>
 
                                                                                                                                                                   </g> 
</svg> 
